<?xml version="1.0" encoding="UTF-8" standalone="no"?>
<svg
   xmlns:dc="http://purl.org/dc/elements/1.1/"
   xmlns:cc="http://creativecommons.org/ns#"
   xmlns:rdf="http://www.w3.org/1999/02/22-rdf-syntax-ns#"
   xmlns:svg="http://www.w3.org/2000/svg"
   xmlns="http://www.w3.org/2000/svg"
   xmlns:sodipodi="http://sodipodi.sourceforge.net/DTD/sodipodi-0.dtd"
   xmlns:inkscape="http://www.inkscape.org/namespaces/inkscape"
   version="1.0"
   width="1476.6996pt"
   height="1315.5082pt"
   viewBox="0 0 1476.6996 1315.5082"
   preserveAspectRatio="xMidYMid meet"
   id="svg8"
   sodipodi:docname="sicklip.svg"
   inkscape:version="0.92.3 (2405546, 2018-03-11)">
  <defs
     id="defs12" />
  <sodipodi:namedview
     pagecolor="#ffffff"
     bordercolor="#666666"
     borderopacity="1"
     objecttolerance="10"
     gridtolerance="10"
     guidetolerance="10"
     inkscape:pageopacity="0"
     inkscape:pageshadow="2"
     inkscape:window-width="1862"
     inkscape:window-height="1145"
     id="namedview10"
     showgrid="false"
     inkscape:zoom="0.16203378"
     inkscape:cx="230.52471"
     inkscape:cy="2029.3396"
     inkscape:window-x="1978"
     inkscape:window-y="27"
     inkscape:window-maximized="1"
     inkscape:current-layer="svg8"
     fit-margin-top="100"
     fit-margin-left="100"
     fit-margin-right="100"
     fit-margin-bottom="100" />
  <metadata
     id="metadata2">
Created by potrace 1.15, written by Peter Selinger 2001-2017
<rdf:RDF>
  <cc:Work
     rdf:about="">
    <dc:format>image/svg+xml</dc:format>
    <dc:type
       rdf:resource="http://purl.org/dc/dcmitype/StillImage" />
    <dc:title></dc:title>
  </cc:Work>
</rdf:RDF>
</metadata>
  <path
     style="fill:#000000;stroke:none;stroke-width:0.16013812"
     inkscape:connector-curvature="0"
     id="path4"
     d="M 1272.9783,961.65951 C 1189.0906,898.00386 892.77176,648.9181 882.45266,641.37194 c 5.75463,-17.07138 -1.27637,1.18176 5.75463,-17.07138 21.3688,-54.98752 13.4457,-91.12029 -13.9807,-134.7874 -18.0562,-28.8353 -92.136,-110.32156 -137.5909,-151.63813 -38.4868,-34.90389 -60.196,-48.36875 -88.9686,-54.97839 -24.72286,-5.86742 -39.50086,-4.52955 -49.19547,4.31303 -3.29621,3.09399 -8.56095,5.49156 -13.32381,6.36002 -4.25869,0.91654 -12.23857,3.51303 -17.7145,5.99221 -17.54915,7.9919 -25.79607,17.12516 -26.91626,29.93928 -0.56001,6.40707 -1.71019,9.40046 -6.98285,17.74905 -24.77344,38.94407 -27.88987,42.81821 -42.04207,49.86229 -20.24517,10.12572 -38.6361,32.28088 -43.98922,52.67795 -1.26032,5.22123 -2.69955,11.23916 -3.16791,13.48365 -0.62872,3.39927 -2.0265,4.18158 -8.34978,5.40996 -16.84045,3.22684 -27.31064,15.40376 -26.44334,30.84914 0.40004,7.00733 7.77719,26.73608 13.04067,35.02104 l 2.55854,4.11005 -5.18978,-2.12268 c -19.60453,-8.3298 -10.77773,13.26672 18.69771,45.58179 28.1071,30.65845 69.81319,65.41147 105.20943,87.91364 55.0555,35.05939 134.39814,66.68634 177.60564,70.75544 41.8414,3.98967 63.6503,1.978 102.2506,-32.59547 5.9758,-5.58542 17.5607,-19.22831 18.8788,-18.64478 1.1713,0.51864 297.95871,270.45115 384.16461,343.75855 86.2059,73.3075 78.2842,66.2267 106.9901,28.7751 28.7058,-37.4516 23.1178,-36.7708 -60.7699,-100.42639 z"
     sodipodi:nodetypes="zccccccccscccccccccccccszzz" />
  <path
     style="fill:#000000;stroke:none;stroke-width:0.1"
     id="path4-3"
     d="m 636.40349,100.77042 c 40.2001,9.4 73.1001,20.1 105.7001,34.5 106.7,47.2 187.7,121.4 234.9,215.5 21.2,42.4 36.70001,92.7 44.40001,143.9 4.5,30.2 5.4,45.7 5.5,87.5 v 31.89984 l -2.8,18.40016 c -6.9,25.3 -17.3,50.3 -25.40001,61 -3.7,4.8 -2.6181,4.80463 -13.0794,22.22607 -10.4613,17.42145 -38.6817,57.25182 -62.5885,78.23877 -23.9068,20.98696 -38.0321,32.43516 -63.1321,44.93516 -36.3,18.2 -74.4,29 -124,35 -14.9,1.8 -77.7,1.8 -94.0001,0 -53.59995,-5.9 -94.89995,-15.2 -162.99995,-36.8 -6,-2 -20.9,-6.7 -33,-10.5 -21.7,-6.9 -51.9,-15.9 -53.4,-15.9 -0.4,0 -4.3,5.2 -8.6,11.7 -4.3,6.4 -10.5,15.2 -13.7,19.6 -3.3,4.3 -5.8,8 -5.6,8.1 2.5,2.1 25.7,16.3 36.8,22.7 18.3,10.5 63.1,32.4 86.3,42.3 70,29.7 138.3,48.6 202.70005,56 44.5,5.2 92.8,4.8 131.8,-1 71.8,-10.6 136.2,-38.6 191.50001,-83.1 7.8,-6.4 9.1941,-7.05747 14.0847,-11.37966 4.8906,-4.32219 29.6156,-20.81818 52.7523,-47.65503 23.1368,-26.83685 29.863,-48.26531 32.263,-53.36531 15.8999,-33.8 26.6,-78.9 30.7,-128.4 1.6999,-20.7 0.6,-69.5 -2,-91.5 -8,-67.1 -28.6,-136 -59.9,-201 -14.1,-29.2 -43.8,-67.8 -80.1,-104 -41.50001,-41.5 -82.50001,-71.4 -132.10001,-96.4 -24,-12.2 -40.8,-19.2 -66,-27.7 -37.5,-12.5 -69.1,-19.3 -110,-23.4 -18.9,-1.9 -63.9,-3.000001 -57.0001,-1.4 z"
     inkscape:connector-curvature="0"
     sodipodi:nodetypes="cccccccczzcccccscccccccczzccccccccc" />
  <path
     style="fill:#000000;stroke:none;stroke-width:0.1"
     id="path6"
     d="m 445.40354,763.77042 c -8.9,1.5 -22.5,8.8 -30.8,16.5 -8.4,7.7 -16.8,18.2 -15.6,19.3 1.2,1 87.6,27 98.6,29.6 2.6,0.7 2.8,0.4 5,-6.7 1.8,-5.7 2.3,-9.7 2.3,-18.3 0,-10.5 -0.2,-11.4 -3.3,-17.7 -4,-8.1 -8.2,-11.9 -18.6,-16.9 -12.5,-6 -24.8,-7.9 -37.6,-5.8 z"
     inkscape:connector-curvature="0" />
  <path
     style="fill:#000000;stroke:none;stroke-width:0.1"
     id="path8"
     d="m 346.80354,877.97042 c -18,24.1 -31.9,40.2 -50.9,59.3 -20.2,20.3 -26.7,25.9 -76.1,65.49998 -74.4,59.6 -91,74.5 -102.8,92.2 -12.4,18.6 -16.9,32.5 -17,52.7 -0.1,15.8 1.9,24.4 8.4,36.9 6.2,11.8 10,15.5 20.5,20 34,14.5 66.9,14.6 89.2,0.2 9.5,-6.1 14.8,-12.3 35.3,-40.7 88.3,-122.5 159.6,-216.09998 184.1,-241.79998 8.5,-8.9 9.8,-10.7 8.2,-11.3 -1,-0.3 -6.3,-2.6 -11.8,-5 -19.6,-8.7 -37.5,-19.2 -74,-43.5 -0.6,-0.3 -6.4,6.5 -13.1,15.5 z"
     inkscape:connector-curvature="0" />
</svg>
