<svg xmlns="http://www.w3.org/2000/svg" width="100" height="16.451" viewBox="0 0 26.458 4.353"><g style="fill:#20bd67;stroke-width:.056"><path d="M1.582 3.955q-.454 0-.818-.187-.358-.193-.562-.53Q0 2.901 0 2.473q0-.427.203-.764.204-.337.562-.524.364-.193.818-.193.455 0 .813.193.358.187.562.524.203.337.203.764 0 .428-.203.765-.204.337-.562.53-.358.187-.813.187zm0-.685q.321 0 .524-.214.209-.219.209-.583 0-.363-.209-.577-.203-.22-.524-.22-.32 0-.53.22-.208.214-.208.577 0 .364.209.583.208.214.53.214zM5.174.992q.535 0 .86.32.332.322.332.953v1.647h-.834V2.393q0-.342-.15-.508-.15-.171-.433-.171-.315 0-.503.198-.187.192-.187.577v1.423h-.834V1.035h.797v.337q.166-.182.412-.278.246-.102.54-.102zm3.078 2.963q-.46 0-.829-.187-.364-.193-.572-.53-.203-.337-.203-.765 0-.427.203-.764.208-.337.572-.524.37-.193.829-.193.455 0 .792.193.342.187.497.54l-.647.347q-.225-.395-.647-.395-.327 0-.54.213-.214.214-.214.583 0 .37.214.583.213.214.54.214.428 0 .647-.396l.647.353q-.155.343-.497.535-.337.193-.792.193z"/><path d="M12.512 2.484q0 .016-.016.225H10.32q.06.267.279.422.219.155.545.155.225 0 .396-.064.176-.07.326-.214l.444.482q-.407.465-1.187.465-.487 0-.861-.187-.375-.193-.578-.53-.203-.337-.203-.765 0-.422.198-.759.203-.342.55-.53.354-.192.787-.192.422 0 .764.182.343.182.535.524.198.337.198.786zm-1.492-.86q-.283 0-.476.16-.192.16-.235.438h1.417q-.043-.273-.235-.433-.193-.166-.47-.166zm2.073 2.331q-.22 0-.37-.15-.149-.15-.149-.374 0-.23.15-.37.15-.144.369-.144.22 0 .369.145.15.139.15.369 0 .224-.15.374t-.37.15zm2.629-.182q-.123.09-.305.139-.176.043-.374.043-.514 0-.797-.262-.278-.262-.278-.77V1.74h-.444v-.642h.444v-.7h.834v.7h.717v.642h-.717v1.17q0 .183.09.284.097.097.268.097.198 0 .337-.107z" style="stroke-width:.00510532"/><path d="M17.18 3.955q-.455 0-.819-.187-.358-.193-.561-.53-.203-.337-.203-.765 0-.427.203-.764t.561-.524q.364-.193.819-.193.454 0 .813.193.358.187.561.524.203.337.203.764 0 .428-.203.765t-.561.53q-.359.187-.813.187zm0-.685q.32 0 .524-.214.208-.219.208-.583 0-.363-.208-.577-.203-.22-.524-.22t-.53.22q-.208.214-.208.577 0 .364.208.583.209.214.53.214z" style="stroke-width:.00510532"/></g><path d="M22.381 0v1.475l-3.22 2.878V2.877z" fill="#20bd67" style="stroke-width:.0917101"/><path d="M24.42 0v1.475L21.2 4.353V2.877z" fill="#199450" style="stroke-width:.0917101"/><path d="M26.458 0v1.475l-3.22 2.878V2.877z" fill="orange" style="stroke-width:.0917101"/></svg>